# xmcd CD database file
#
# Track frame offsets:
#	150
#	27862
#	57606
#	86509
#	112765
#	132728
#	160670
#	195314
#
# Disc length: 2939 seconds
#
# Revision: 0
# Processed by: cddbd v1.5.2PL0 Copyright (c) Steve Scherf et al.
# Submitted via: CDex 1.70beta2
#
DISCID=610b7908
DTITLE=The Harlem Art Ensemble - Live In New York
DYEAR=2007
DGENRE=Jazz
TTITLE0=Keep Talkin'
TTITLE1=All In Love Is Fair
TTITLE2=Invitation
TTITLE3=That's When We Thought Of Love
TTITLE4=Four
TTITLE5=Blues For Beth
TTITLE6=Strollin'
TTITLE7=Bumpin' On Sunset
EXTD=YEAR: 2007
EXTT0=
EXTT1=
EXTT2=
EXTT3=
EXTT4=
EXTT5=
EXTT6=
EXTT7=
PLAYORDER=
